Coordinates
version=1
nRows=12
nColumns=42
inDegrees=yes

Units are S.I. units (second, meters, Newtons, ...)
If the header above contains a line with 'inDegrees', this indicates whether rotational values are in degrees (yes) or radians (no).

endheader
time	pelvis_tilt	pelvis_list	pelvis_rotation	pelvis_tx	pelvis_ty	pelvis_tz	hip_flexion_r	hip_adduction_r	hip_rotation_r	knee_angle_r	knee_adduction_r	knee_angle_r_beta	ankle_angle_r	subtalar_angle_r	mtp_angle_r	hip_flexion_l	hip_adduction_l	hip_rotation_l	knee_angle_l	knee_adduction_l	knee_angle_l_beta	ankle_angle_l	subtalar_angle_l	mtp_angle_l	lumbar_extension	lumbar_bending	lumbar_rotation	arm_flex_r	arm_add_r	arm_rot_r	elbow_flex_r	pro_sup_r	wrist_flex_r	wrist_dev_r	arm_flex_l	arm_add_l	arm_rot_l	elbow_flex_l	pro_sup_l	wrist_flex_l	wrist_dev_l
      0.23000000	     -1.99833059	     -2.64663040	     -6.81904425	     -1.13559356	      0.84605885	     -0.37841030	     -8.55427272	      0.90759649	      2.44331311	     22.70819264	      7.86946067	      0.39633273	     11.03073694	     -0.02918601	     -9.38168434	     25.90840308	     -8.95840875	     -8.62851181	     14.34011810	      8.77058922	      0.25028228	      3.66792799	     -9.34997608	     -9.38168434	     -9.08037819	     -0.82132463	     12.72703007	      8.94584561	    -20.27659565	     11.56251134	     52.22168882	     90.00000001	      0.00000000	      0.00000000	     -2.09955944	     -9.99080877	    -15.02180557	     30.28564725	     90.00000001	      0.00000000	      0.00000000
      0.24000000	     -1.99389424	     -2.19471495	     -6.96125618	     -1.12319835	      0.84635161	     -0.37894494	     -8.09647541	      0.23480559	      2.44712905	     25.03443754	      7.91211067	      0.43693336	      9.41005151	     -0.68889705	     -9.33249120	     25.53900367	     -8.34817101	     -8.14824293	     15.06368870	      8.77240215	      0.26291097	      3.62547242	     -9.47160675	     -9.33249120	     -8.97009679	     -1.35780676	     12.72426362	      8.73992795	    -20.05565486	     11.53418222	     52.26541409	     90.00000001	      0.00000000	      0.00000000	     -2.11859308	    -10.15930962	    -15.13827841	     30.12501007	     90.00000001	      0.00000000	      0.00000000
      0.25000000	     -2.03479376	     -1.79547104	     -7.01740296	     -1.11082808	      0.84676601	     -0.37953835	     -7.45916330	     -0.33780406	      2.42473584	     27.55068046	      7.93700920	      0.48085009	      7.38589293	     -1.94022585	     -9.25031445	     25.21373579	     -7.77455717	     -7.33793906	     15.83040052	      8.87106071	      0.27629261	      3.20817584	    -10.19916376	     -9.25031445	     -8.81517433	     -1.82078999	     12.64725510	      8.48433382	    -19.83217701	     11.50225915	     52.29435145	     90.00000001	      0.00000000	      0.00000000	     -1.99380780	    -10.34305777	    -15.22166075	     29.70278754	     90.00000001	      0.00000000	      0.00000000
      0.26000000	     -2.02424772	     -1.26305229	     -7.10206147	     -1.09841732	      0.84734465	     -0.38021712	     -6.68670366	     -1.10443748	      2.39457852	     30.31602421	      8.00433826	      0.52911444	      5.26819438	     -3.00348813	     -9.21837014	     24.76662271	     -7.04098803	     -6.59324756	     16.52310942	      8.94995152	      0.28838266	      3.09847833	    -10.68310823	     -9.21837014	     -8.68895140	     -2.42176093	     12.58545170	      8.17387895	    -19.62730692	     11.55269868	     52.22777789	     90.00000001	      0.00000000	      0.00000000	     -1.91336798	    -10.54988802	    -15.24011328	     29.53568595	     90.00000001	      0.00000000	      0.00000000
      0.27000000	     -2.04164608	     -0.77109000	     -7.12131861	     -1.08605847	      0.84799679	     -0.38092826	     -5.72725475	     -1.79633223	      2.19369455	     33.29306047	      7.97174967	      0.58107352	      2.93669992	     -4.26744876	     -9.18948314	     24.34226863	     -6.34607861	     -5.74357169	     17.20597179	      9.09041462	      0.30030086	      2.91274495	    -11.24396285	     -9.18948314	     -8.54490364	     -2.96686969	     12.44168913	      7.84693404	    -19.39806823	     11.59367978	     52.10468944	     90.00000001	      0.00000000	      0.00000000	     -1.83117071	    -10.76406226	    -15.20433424	     29.36131957	     90.00000001	      0.00000000	      0.00000000
      0.28000000	     -2.08030087	     -0.39335936	     -7.02679410	     -1.07383321	      0.84885427	     -0.38159049	     -4.70987925	     -2.27948584	      2.38934395	     36.18474755	      8.10052328	      0.63154298	      0.01216077	     -7.08594824	     -9.06563955	     23.84609307	     -5.76062943	     -4.20374063	     17.63643174	      9.48408043	      0.30781380	      2.08477751	    -13.19034921	     -9.06563955	     -8.41797588	     -3.37986238	     12.21794214	      7.55459786	    -19.07429934	     11.47594068	     51.74023680	     90.00000001	      0.00000000	      0.00000000	     -1.60898697	    -11.04186717	    -14.93874855	     29.04491205	     90.00000001	      0.00000000	      0.00000000
      0.29000000	     -2.07515826	      0.16477666	     -7.03516522	     -1.06159789	      0.84967589	     -0.38239806	     -3.45795888	     -3.06611334	      2.13398271	     39.45527867	      8.01360882	      0.68862452	     -2.01635300	     -8.03110340	     -9.04337285	     23.30157941	     -5.00752452	     -3.51147153	     18.12376452	      9.66409111	      0.31631936	      2.28448851	    -13.39858805	     -9.04337285	     -8.30527530	     -3.96877539	     12.01938486	      7.20957218	    -18.85994171	     11.54331071	     51.54676000	     90.00000001	      0.00000000	      0.00000000	     -1.49879589	    -11.23765783	    -14.89597721	     29.05229284	     90.00000001	      0.00000000	      0.00000000
      0.30000000	     -2.10697592	      0.52554065	     -6.88441251	     -1.04955269	      0.85064466	     -0.38307156	     -2.10316559	     -3.49650175	      1.68379115	     42.66972013	      7.68143063	      0.74472711	     -4.77052031	    -10.20724706	     -8.96924369	     22.79058726	     -4.45227929	     -2.47001067	     18.54852763	      9.95482375	      0.32373288	      2.04179206	    -14.26825023	     -8.96924369	     -8.20999946	     -4.35199612	     11.66566567	      6.91800070	    -18.49891252	     11.51833516	     50.99444267	     90.00000001	      0.00000000	      0.00000000	     -1.34133780	    -11.55753521	    -14.60125741	     29.05526054	     90.00000001	      0.00000000	      0.00000000
      0.31000000	     -2.16247348	      1.06845416	     -6.83765834	     -1.03761073	      0.85155916	     -0.38392855	     -0.54568961	     -4.22167422	      1.46411119	     45.96227521	      7.48349221	      0.80219303	     -6.42573048	    -11.29236126	     -8.94596097	     22.20210145	     -3.71225411	     -1.84330819	     18.76491129	     10.13094069	      0.32750949	      2.39879664	    -14.48428880	     -8.94596097	     -8.05811650	     -4.89493946	     11.40706287	      6.53524812	    -18.26986348	     11.56924688	     50.64167629	     90.00000001	      0.00000000	      0.00000000	     -1.15210643	    -11.77341631	    -14.49807377	     29.12332183	     90.00000001	      0.00000000	      0.00000000
      0.32000000	     -2.20776750	      1.48617547	     -6.75562806	     -1.02582190	      0.85258936	     -0.38467359	      1.08020727	     -4.74620141	      1.14647264	     49.14518617	      7.11522575	      0.85774531	     -7.98475389	    -12.54696569	     -8.92476404	     21.56090979	     -3.13400577	     -1.27307679	     18.91454763	     10.35324346	      0.33012113	      2.72443887	    -14.70667994	     -8.92476404	     -7.95611998	     -5.28851641	     11.08211469	      6.21118314	    -17.99986944	     11.59981532	     50.15956923	     90.00000001	      0.00000000	      0.00000000	     -0.94101279	    -11.99327571	    -14.35409821	     29.21707050	     90.00000001	      0.00000000	      0.00000000
      0.33000000	     -2.27132893	      1.84216138	     -6.64299141	     -1.01418361	      0.85366401	     -0.38537719	      2.79865784	     -5.15910890	      0.85304061	     52.18844729	      6.70439250	      0.91086024	     -9.24784142	    -13.85661459	     -8.90378434	     20.87443862	     -2.61692586	     -0.79835729	     18.93359755	     10.53507734	      0.33045362	      3.11969338	    -14.90019881	     -8.90378434	     -7.84363484	     -5.60624926	     10.72989884	      5.90812716	    -17.71461377	     11.61204229	     49.55262946	     90.00000001	      0.00000000	      0.00000000	     -0.71196265	    -12.21865663	    -14.17897272	     29.35318693	     90.00000001	      0.00000000	      0.00000000
      0.34000000	     -2.33781985	      2.10149550	     -6.50493162	     -1.00274166	      0.85480836	     -0.38611153	      4.57266685	     -5.43332589	      0.56984523	     55.00422358	      6.24338383	      0.96000480	    -10.26905106	    -15.21038630	     -8.87481545	     20.13165532	     -2.20259258	     -0.40678012	     18.85844558	     10.70098139	      0.32914197	      3.54611580	    -15.05618231	     -8.87481545	     -7.77404963	     -5.78340610	     10.31039968	      5.71633767	    -17.38891605	     11.57036503	     48.73919159	     90.00000001	      0.00000000	      0.00000000	     -0.48702599	    -12.42908910	    -13.91398526	     29.55484246	     90.00000001	      0.00000000	      0.00000000
